<svg width="800" height="800" viewBox="0 0 800 800" fill="none" xmlns="http://www.w3.org/2000/svg">
<rect width="800" height="800" fill="white"/>
<g filter="url(#filter0_d_15_2133)">
<path d="M647.255 107.665C651.223 109.37 654.877 111.397 658.22 113.723C644.961 139.685 627.755 166.735 606.794 193.753C520.002 305.621 400.415 376.292 333.433 357.091C343.568 321.626 364.291 281.726 394.972 242.179C473.033 141.565 585.984 81.3404 647.255 107.665Z" fill="url(#paint0_linear_15_2133)"/>
</g>
<g filter="url(#filter1_d_15_2133)">
<path d="M337.438 383.472C423.163 366.379 543.847 494.693 606.994 670.069C611.24 681.86 615.113 693.564 618.627 705.143C617.275 705.458 615.911 705.753 614.536 706.027C517.671 725.342 401.263 635.787 354.531 506C339.121 463.204 333.214 421.378 335.687 383.843C336.268 383.713 336.851 383.589 337.438 383.472Z" fill="url(#paint1_linear_15_2133)"/>
</g>
<rect x="767" y="749" width="1" height="1" fill="#D9D9D9"/>
<g filter="url(#filter2_d_15_2133)">
<path d="M295.86 174.59C314.695 226.054 320.312 301.387 307.95 383.516C297.202 454.926 274.856 518.215 247.254 563.283C221.371 518.169 207.1 453.258 211.14 381.931C216.328 290.352 250.33 212.324 295.86 174.59Z" fill="url(#paint2_linear_15_2133)"/>
</g>
<defs>
<filter id="filter0_d_15_2133" x="329.434" y="101.487" width="332.787" height="266.743" filterUnits="userSpaceOnUse" color-interpolation-filters="sRGB">
<feFlood flood-opacity="0" result="BackgroundImageFix"/>
<feColorMatrix in="SourceAlpha" type="matrix" values="0 0 0 0 0 0 0 0 0 0 0 0 0 0 0 0 0 0 127 0" result="hardAlpha"/>
<feOffset dy="4"/>
<feGaussianBlur stdDeviation="2"/>
<feComposite in2="hardAlpha" operator="out"/>
<feColorMatrix type="matrix" values="0 0 0 0 0 0 0 0 0 0 0 0 0 0 0 0 0 0 0.25 0"/>
<feBlend mode="normal" in2="BackgroundImageFix" result="effect1_dropShadow_15_2133"/>
<feBlend mode="normal" in="SourceGraphic" in2="effect1_dropShadow_15_2133" result="shape"/>
</filter>
<filter id="filter1_d_15_2133" x="331.143" y="381.944" width="291.483" height="334.703" filterUnits="userSpaceOnUse" color-interpolation-filters="sRGB">
<feFlood flood-opacity="0" result="BackgroundImageFix"/>
<feColorMatrix in="SourceAlpha" type="matrix" values="0 0 0 0 0 0 0 0 0 0 0 0 0 0 0 0 0 0 127 0" result="hardAlpha"/>
<feOffset dy="4"/>
<feGaussianBlur stdDeviation="2"/>
<feComposite in2="hardAlpha" operator="out"/>
<feColorMatrix type="matrix" values="0 0 0 0 0 0 0 0 0 0 0 0 0 0 0 0 0 0 0.25 0"/>
<feBlend mode="normal" in2="BackgroundImageFix" result="effect1_dropShadow_15_2133"/>
<feBlend mode="normal" in="SourceGraphic" in2="effect1_dropShadow_15_2133" result="shape"/>
</filter>
<filter id="filter2_d_15_2133" x="206.462" y="174.59" width="112.071" height="396.693" filterUnits="userSpaceOnUse" color-interpolation-filters="sRGB">
<feFlood flood-opacity="0" result="BackgroundImageFix"/>
<feColorMatrix in="SourceAlpha" type="matrix" values="0 0 0 0 0 0 0 0 0 0 0 0 0 0 0 0 0 0 127 0" result="hardAlpha"/>
<feOffset dy="4"/>
<feGaussianBlur stdDeviation="2"/>
<feComposite in2="hardAlpha" operator="out"/>
<feColorMatrix type="matrix" values="0 0 0 0 0 0 0 0 0 0 0 0 0 0 0 0 0 0 0.25 0"/>
<feBlend mode="normal" in2="BackgroundImageFix" result="effect1_dropShadow_15_2133"/>
<feBlend mode="normal" in="SourceGraphic" in2="effect1_dropShadow_15_2133" result="shape"/>
</filter>
<linearGradient id="paint0_linear_15_2133" x1="601.658" y1="88.0746" x2="462.29" y2="412.454" gradientUnits="userSpaceOnUse">
<stop offset="0.0384615" stop-color="#8200DB"/>
<stop offset="1" stop-color="#E60076"/>
</linearGradient>
<linearGradient id="paint1_linear_15_2133" x1="402.439" y1="370.511" x2="474.893" y2="733.872" gradientUnits="userSpaceOnUse">
<stop offset="0.399038" stop-color="#E60076"/>
<stop offset="1" stop-color="#8200DB"/>
</linearGradient>
<linearGradient id="paint2_linear_15_2133" x1="182.688" y1="358.768" x2="320.408" y2="370.05" gradientUnits="userSpaceOnUse">
<stop stop-color="#8200DB"/>
<stop offset="1" stop-color="#E60076"/>
</linearGradient>
</defs>
</svg>
